<svg xmlns="http://www.w3.org/2000/svg" xmlns:xlink="http://www.w3.org/1999/xlink" width="68.11" height="62.179" viewBox="0 0 68.11 62.179">
  <defs>
    <filter id="Path_2937" x="9.179" y="0" width="58.931" height="62.179" filterUnits="userSpaceOnUse">
      <feOffset dx="2" dy="6" input="SourceAlpha"/>
      <feGaussianBlur stdDeviation="6" result="blur"/>
      <feFlood flood-opacity="0.161"/>
      <feComposite operator="in" in2="blur"/>
      <feComposite in="SourceGraphic"/>
    </filter>
    <filter id="Path_6" x="0" y="2.685" width="55.632" height="58.397" filterUnits="userSpaceOnUse">
      <feOffset dx="2" dy="6" input="SourceAlpha"/>
      <feGaussianBlur stdDeviation="6" result="blur-2"/>
      <feFlood flood-opacity="0.161"/>
      <feComposite operator="in" in2="blur-2"/>
      <feComposite in="SourceGraphic"/>
    </filter>
    <filter id="Path_7" x="10.884" y="13.188" width="39.502" height="40.113" filterUnits="userSpaceOnUse">
      <feOffset dx="2" dy="6" input="SourceAlpha"/>
      <feGaussianBlur stdDeviation="6" result="blur-3"/>
      <feFlood flood-opacity="0.161"/>
      <feComposite operator="in" in2="blur-3"/>
      <feComposite in="SourceGraphic"/>
    </filter>
  </defs>
  <g id="Group_143" data-name="Group 143" transform="translate(-2377.55 -1199)">
    <g transform="matrix(1, 0, 0, 1, 2377.55, 1199)" filter="url(#Path_2937)">
      <path id="Path_2937-2" data-name="Path 2937" d="M236.6,7.651a21.748,21.748,0,0,1,.837,7.384,12.147,12.147,0,0,1-2.128,6.2c-2.115,2.988-5.817,4.711-10.9,4.946a5.42,5.42,0,0,1-1,0,1.378,1.378,0,0,1-1.147-1.579,2.443,2.443,0,0,1,.5-.93c2.55-3.717,4.986-7.221,7.6-10.932.38-.541.715-1.29,1.314-1.533a1.458,1.458,0,0,1,1.5.248,1.36,1.36,0,0,1,.415,1.423,2.861,2.861,0,0,1-.406.7c-2.189,3.177-4.544,6.48-6.691,9.637a11.449,11.449,0,0,0,4.637-1.7,7.479,7.479,0,0,0,2.772-3.483c1.138-2.815.811-6.5.048-9.408a4.366,4.366,0,0,1-.286-1.324,2.671,2.671,0,0,1,.574-1.161c.691-1.029,1.417-2.076,2.079-3.065a11.1,11.1,0,0,1,1.432-2.018A3.989,3.989,0,0,1,240.278.035a5.354,5.354,0,0,1,1.887.255A4.649,4.649,0,0,1,243.6.963a3.835,3.835,0,0,1,1.553,2.624,4.93,4.93,0,0,1-1.383,3.646,4.16,4.16,0,0,1-3.511,1.556,2.685,2.685,0,0,1-1.291-.414,1.681,1.681,0,0,1-.788-.883,1.349,1.349,0,0,1,.44-1.465,1.446,1.446,0,0,1,1.562-.164c.144.073.251.18.406.186a1.423,1.423,0,0,0,.745-.279,2.6,2.6,0,0,0,.455-.534,1.885,1.885,0,0,0,.55-1.416,1.144,1.144,0,0,0-.5-.724,2.538,2.538,0,0,0-1.936-.207,1.8,1.8,0,0,0-.478.533C238.5,4.79,237.474,6.374,236.6,7.651Z" transform="translate(-197.06 11.97)" fill="#dcddde" fill-rule="evenodd"/>
    </g>
    <g id="Group_142" data-name="Group 142" transform="translate(2393.55 1213.685)">
      <g transform="matrix(1, 0, 0, 1, -16, -14.68)" filter="url(#Path_6)">
        <path id="Path_6-2" data-name="Path 6" d="M147.572,30.072a6.641,6.641,0,0,1,4.256,1.155c.437.3,1.025.617.884,1.387a1.1,1.1,0,0,1-1.291.878,1.38,1.38,0,0,1-.693-.369,4.6,4.6,0,0,0-2.748-.9,5.33,5.33,0,0,0-4.518,3.235,5.058,5.058,0,0,0-.479,2.076,4.446,4.446,0,0,0,.478,2.08,5.411,5.411,0,0,0,1.076,1.5,8.417,8.417,0,0,0,.694.6,1.148,1.148,0,0,1,.549.9,1.1,1.1,0,0,1-1.266,1.132,2.017,2.017,0,0,1-.98-.555,8.232,8.232,0,0,1-2.056-2.5,6.7,6.7,0,0,1-.717-2.311,7.357,7.357,0,0,1,1.147-4.784,8,8,0,0,1,3.227-2.865A6.539,6.539,0,0,1,147.572,30.072Zm-.332-4.766a11.787,11.787,0,0,0-2.246.324,11.4,11.4,0,0,0-4.971,2.611,11.665,11.665,0,0,0-3.8,6.216,11.848,11.848,0,0,0-.095,4.461,11.986,11.986,0,0,0,1.337,3.651,16.014,16.014,0,0,0,4.159,4.622,2.107,2.107,0,0,0,.836.439,1.436,1.436,0,0,0,1.6-.809,1.4,1.4,0,0,0-.024-1.086c-.239-.514-.911-.854-1.314-1.2a11.824,11.824,0,0,1-3.274-4.3,8.495,8.495,0,0,1,.693-7.922,9.17,9.17,0,0,1,2.467-2.593,8.909,8.909,0,0,1,3.537-1.548,9.1,9.1,0,0,1,6.978,1.641,1.973,1.973,0,0,0,.861.412,1.636,1.636,0,0,0,.836-.139,1.365,1.365,0,0,0,.669-1.756,1.818,1.818,0,0,0-.669-.72,12.076,12.076,0,0,0-7.554-2.335C147.247,25.284,147.234,25.307,147.24,25.306Z" transform="translate(-119.96 -10.58)" fill="#9f0b10" fill-rule="evenodd"/>
      </g>
      <g transform="matrix(1, 0, 0, 1, -16, -14.68)" filter="url(#Path_7)">
        <path id="Path_7-2" data-name="Path 7" d="M241.759,128.494a8.859,8.859,0,0,1-.62.958c-.63.91-1.236,1.854-1.889,2.773a2.184,2.184,0,0,1-.98-2.128,2.25,2.25,0,0,1,2.151-1.983A2.3,2.3,0,0,1,241.759,128.494Z" transform="translate(-211.37 -102.92)" fill="#9f0b10" fill-rule="evenodd"/>
      </g>
    </g>
  </g>
</svg>
